<?xml version="1.0" encoding="UTF-8" standalone="no"?>
<!DOCTYPE svg PUBLIC "-//W3C//DTD SVG 1.1//EN" "http://www.w3.org/Graphics/SVG/1.1/DTD/svg11.dtd">
<svg width="100%" height="100%" viewBox="0 0 1505 198" version="1.1" xmlns="http://www.w3.org/2000/svg" xmlns:xlink="http://www.w3.org/1999/xlink" xml:space="preserve" xmlns:serif="http://www.serif.com/" style="fill-rule:evenodd;clip-rule:evenodd;stroke-linejoin:round;stroke-miterlimit:2;">
    <g transform="matrix(1,0,0,1,-247.58,-901.38)">
        <g>
            <g>
                <path d="M443.42,958.36L443.42,1040.57C443.42,1045.96 439.05,1050.33 433.67,1050.33L264.06,1050.33L264.06,1093.53L247.63,1093.53L247.63,1033.95L418.6,1033.95C423.22,1033.95 426.99,1030.19 426.99,1025.56L426.99,973.37C426.99,968.74 423.23,964.97 418.6,964.97L279.33,964.97L279.33,948.61L433.67,948.61C439.06,948.61 443.42,952.99 443.42,958.36Z" style="fill:rgb(40,168,181);fill-rule:nonzero;"/>
                <g>
                    <path d="M264.01,991.81L410.2,991.81L410.2,1008.17L257.33,1008.17C256.81,1008.17 256.29,1008.13 255.79,1008.05C251.15,1007.31 247.58,1003.27 247.58,998.42L247.58,916.21C247.58,910.83 251.96,906.46 257.33,906.46L443.37,906.46L443.37,922.83L272.4,922.83C272.08,922.83 271.78,922.85 271.47,922.88C271.41,922.88 271.34,922.9 271.28,922.91C271.2,922.91 271.11,922.91 271.03,922.95C270.92,922.95 270.81,922.98 270.7,923C270.56,923.03 270.43,923.07 270.29,923.1C266.67,924.03 264,927.31 264,931.21L264,991.8L264.01,991.81Z" style="fill:rgb(6,188,153);fill-rule:nonzero;"/>
                    <g>
                        <path d="M443.46,1061.53L443.37,1070.6L443.37,1083.78C443.37,1089.16 439,1093.53 433.62,1093.53L279.28,1093.53L279.28,1077.16L418.55,1077.16C420.46,1077.16 422.23,1076.52 423.64,1075.43C423.76,1075.34 423.89,1075.24 424.01,1075.13C425.07,1074.23 425.9,1073.06 426.4,1071.73C426.45,1071.59 426.5,1071.44 426.55,1071.3C426.6,1071.14 426.65,1070.97 426.69,1070.81C426.81,1070.37 426.97,1069.9 427.01,1069.43C427.27,1068.11 427.46,1066.49 427.55,1064.5C430.66,1064.66 438.33,1064.68 443.47,1061.54L443.46,1061.53Z" style="fill:rgb(6,188,153);fill-rule:nonzero;"/>
                        <path d="M427,1069.42C426.96,1069.89 426.8,1070.36 426.68,1070.8C426.8,1070.38 426.91,1069.92 427,1069.42Z" style="fill:rgb(6,188,153);fill-rule:nonzero;"/>
                        <path d="M427,1069.42C426.96,1069.89 426.8,1070.36 426.68,1070.8C426.8,1070.38 426.91,1069.92 427,1069.42Z" style="fill:rgb(6,188,153);fill-rule:nonzero;"/>
                    </g>
                </g>
            </g>
            <g>
                <g>
                    <g>
                        <path d="M513.76,1070.64L535.37,1070.64L535.37,1072.94L511.21,1072.94L511.21,1037.93L534.62,1037.93L534.62,1040.23L513.76,1040.23L513.76,1070.64ZM513.46,1054.03L532.42,1054.03L532.42,1056.28L513.46,1056.28L513.46,1054.03Z" style="fill:rgb(6,188,153);fill-rule:nonzero;"/>
                        <path d="M535.9,1073.47L510.68,1073.47L510.68,1037.39L535.15,1037.39L535.15,1040.76L514.29,1040.76L514.29,1053.5L532.95,1053.5L532.95,1056.82L514.29,1056.82L514.29,1070.11L535.9,1070.11L535.9,1073.48L535.9,1073.47ZM511.74,1072.4L534.83,1072.4L534.83,1071.16L513.22,1071.16L513.22,1056.81L512.92,1056.81L512.92,1053.49L513.22,1053.49L513.22,1039.69L534.08,1039.69L534.08,1038.45L511.74,1038.45L511.74,1072.4ZM514.29,1055.75L531.88,1055.75L531.88,1054.56L514.29,1054.56L514.29,1055.75Z" style="fill:rgb(6,188,153);fill-rule:nonzero;"/>
                    </g>
                    <g>
                        <path d="M562.18,1072.94L562.18,1037.93L564.33,1037.93L589.29,1069.79L588.14,1069.79L588.14,1037.93L590.69,1037.93L590.69,1072.94L588.59,1072.94L563.58,1041.08L564.73,1041.08L564.73,1072.94L562.18,1072.94Z" style="fill:rgb(6,188,153);fill-rule:nonzero;"/>
                        <path d="M591.22,1073.47L588.33,1073.47L565.26,1044.08L565.26,1073.47L561.64,1073.47L561.64,1037.39L564.58,1037.39L587.6,1066.77L587.6,1037.39L591.22,1037.39L591.22,1073.47ZM588.85,1072.4L590.16,1072.4L590.16,1070.31L587.61,1070.31L587.61,1068.49L564.08,1038.45L562.72,1038.45L562.72,1040.54L565.27,1040.54L565.27,1042.35L588.85,1072.4ZM562.71,1072.4L564.19,1072.4L564.19,1042.72L562.71,1040.83L562.71,1072.4ZM588.67,1068.13L590.15,1070.02L590.15,1038.45L588.67,1038.45L588.67,1068.13Z" style="fill:rgb(6,188,153);fill-rule:nonzero;"/>
                    </g>
                    <g>
                        <path d="M622.95,1072.94L620.4,1072.94L620.4,1037.93L622.95,1037.93L622.95,1072.94ZM646.66,1056.28L622.65,1056.28L622.65,1054.03L646.66,1054.03L646.66,1056.28ZM646.36,1037.92L648.91,1037.92L648.91,1072.93L646.36,1072.93L646.36,1037.92Z" style="fill:rgb(6,188,153);fill-rule:nonzero;"/>
                        <path d="M649.44,1073.47L645.82,1073.47L645.82,1056.82L623.48,1056.82L623.48,1073.47L619.86,1073.47L619.86,1037.39L623.48,1037.39L623.48,1053.5L645.82,1053.5L645.82,1037.39L649.44,1037.39L649.44,1073.47ZM646.89,1072.4L648.37,1072.4L648.37,1038.45L646.89,1038.45L646.89,1053.49L647.19,1053.49L647.19,1056.81L646.89,1056.81L646.89,1072.4ZM620.93,1072.4L622.41,1072.4L622.41,1056.81L622.11,1056.81L622.11,1053.49L622.41,1053.49L622.41,1038.45L620.93,1038.45L620.93,1072.4ZM623.48,1055.75L645.82,1055.75L645.82,1054.56L623.48,1054.56L623.48,1055.75Z" style="fill:rgb(6,188,153);fill-rule:nonzero;"/>
                    </g>
                    <g>
                        <path d="M672.76,1072.94L688.87,1037.93L691.42,1037.93L707.52,1072.94L704.77,1072.94L689.56,1039.53L690.66,1039.53L675.51,1072.94L672.76,1072.94ZM678.66,1063.09L679.51,1060.94L700.47,1060.94L701.32,1063.09L678.66,1063.09Z" style="fill:rgb(6,188,153);fill-rule:nonzero;"/>
                        <path d="M708.35,1073.47L704.42,1073.47L699.94,1063.62L680.32,1063.62L675.85,1073.47L671.92,1073.47L688.52,1037.39L691.75,1037.39L708.34,1073.47L708.35,1073.47ZM705.11,1072.4L706.68,1072.4L691.4,1039.18L690.69,1040.74L699.64,1060.4L700.82,1060.4L702.09,1063.62L701.1,1063.62L705.1,1072.41L705.11,1072.4ZM673.59,1072.4L675.17,1072.4L679.16,1063.61L677.89,1063.61L679.16,1060.39L680.62,1060.39L689.54,1040.73L688.86,1039.23L673.6,1072.4L673.59,1072.4ZM680.81,1062.55L699.46,1062.55L698.97,1061.46L681.31,1061.46L680.82,1062.55L680.81,1062.55ZM679.44,1062.55L679.64,1062.55L680.13,1061.46L679.87,1061.46L679.44,1062.55ZM681.79,1060.4L698.48,1060.4L690.12,1042.03L681.79,1060.4ZM688.96,1039L691.33,1039L691.08,1038.46L689.21,1038.46L688.96,1039Z" style="fill:rgb(6,188,153);fill-rule:nonzero;"/>
                    </g>
                    <g>
                        <path d="M731.38,1072.94L731.38,1037.93L733.53,1037.93L758.49,1069.79L757.34,1069.79L757.34,1037.93L759.89,1037.93L759.89,1072.94L757.79,1072.94L732.78,1041.08L733.93,1041.08L733.93,1072.94L731.38,1072.94Z" style="fill:rgb(6,188,153);fill-rule:nonzero;"/>
                        <path d="M760.42,1073.47L757.53,1073.47L734.46,1044.08L734.46,1073.47L730.84,1073.47L730.84,1037.39L733.78,1037.39L756.8,1066.77L756.8,1037.39L760.42,1037.39L760.42,1073.47ZM758.05,1072.4L759.36,1072.4L759.36,1070.31L756.81,1070.31L756.81,1068.49L733.28,1038.45L731.92,1038.45L731.92,1040.54L734.47,1040.54L734.47,1042.35L758.05,1072.4ZM731.92,1072.4L733.4,1072.4L733.4,1042.72L731.92,1040.83L731.92,1072.4ZM757.88,1068.13L759.36,1070.02L759.36,1038.45L757.88,1038.45L757.88,1068.13Z" style="fill:rgb(6,188,153);fill-rule:nonzero;"/>
                    </g>
                    <g>
                        <path d="M804.4,1073.19C801.8,1073.19 799.39,1072.75 797.17,1071.87C794.95,1070.99 793.03,1069.74 791.39,1068.14C789.76,1066.54 788.49,1064.66 787.59,1062.51C786.69,1060.36 786.24,1058 786.24,1055.43C786.24,1052.86 786.69,1050.5 787.59,1048.35C788.49,1046.2 789.77,1044.32 791.42,1042.73C793.07,1041.13 795,1039.89 797.2,1039C799.4,1038.12 801.8,1037.67 804.4,1037.67C806.87,1037.67 809.18,1038.07 811.33,1038.87C813.48,1039.67 815.32,1040.89 816.86,1042.52L815.26,1044.17C813.76,1042.7 812.1,1041.64 810.28,1040.99C808.46,1040.34 806.54,1040.02 804.5,1040.02C802.27,1040.02 800.19,1040.4 798.27,1041.17C796.35,1041.94 794.69,1043.02 793.27,1044.42C791.85,1045.82 790.75,1047.45 789.97,1049.32C789.19,1051.19 788.79,1053.22 788.79,1055.42C788.79,1057.62 789.18,1059.65 789.97,1061.52C790.75,1063.39 791.85,1065.02 793.27,1066.42C794.69,1067.82 796.35,1068.9 798.27,1069.67C800.19,1070.44 802.26,1070.82 804.5,1070.82C806.53,1070.82 808.46,1070.5 810.28,1069.85C812.1,1069.2 813.76,1068.13 815.26,1066.62L816.86,1068.27C815.33,1069.9 813.48,1071.13 811.33,1071.95C809.18,1072.77 806.87,1073.17 804.4,1073.17L804.4,1073.19Z" style="fill:rgb(6,188,153);fill-rule:nonzero;"/>
                        <path d="M804.4,1073.72C801.74,1073.72 799.25,1073.26 796.98,1072.36C794.71,1071.45 792.71,1070.16 791.03,1068.52C789.35,1066.87 788.03,1064.92 787.11,1062.72C786.19,1060.51 785.72,1058.06 785.72,1055.44C785.72,1052.82 786.19,1050.36 787.11,1048.15C788.03,1045.94 789.36,1043.99 791.06,1042.35C792.75,1040.71 794.75,1039.42 797.01,1038.51C799.27,1037.6 801.76,1037.14 804.41,1037.14C807.06,1037.14 809.33,1037.56 811.52,1038.38C813.74,1039.21 815.67,1040.48 817.25,1042.17L817.6,1042.54L815.27,1044.94L814.89,1044.57C813.45,1043.16 811.84,1042.13 810.11,1041.51C806.44,1040.2 802.01,1040.27 798.48,1041.68C796.64,1042.42 795.01,1043.47 793.66,1044.81C792.3,1046.16 791.23,1047.75 790.48,1049.54C789.73,1051.33 789.35,1053.32 789.35,1055.44C789.35,1057.56 789.73,1059.54 790.48,1061.33C791.23,1063.12 792.3,1064.72 793.66,1066.06C795.02,1067.41 796.65,1068.46 798.48,1069.19C802.01,1070.6 806.43,1070.67 810.11,1069.36C811.85,1068.74 813.46,1067.7 814.89,1066.26L815.27,1065.88L817.6,1068.29L817.25,1068.66C815.66,1070.35 813.74,1071.63 811.52,1072.47C809.32,1073.31 806.92,1073.73 804.4,1073.73L804.4,1073.72ZM804.4,1038.21C801.88,1038.21 799.53,1038.64 797.4,1039.5C795.27,1040.35 793.39,1041.57 791.8,1043.11C790.21,1044.65 788.96,1046.48 788.09,1048.56C787.22,1050.64 786.78,1052.95 786.78,1055.43C786.78,1057.91 787.22,1060.22 788.09,1062.3C788.96,1064.37 790.2,1066.21 791.77,1067.75C793.35,1069.29 795.23,1070.51 797.37,1071.36C799.51,1072.21 801.88,1072.65 804.4,1072.65C806.92,1072.65 809.06,1072.25 811.14,1071.46C813.04,1070.74 814.71,1069.67 816.11,1068.28L815.24,1067.38C813.79,1068.74 812.19,1069.74 810.45,1070.35C806.53,1071.75 801.83,1071.67 798.07,1070.17C796.1,1069.38 794.36,1068.25 792.89,1066.8C791.43,1065.36 790.28,1063.65 789.47,1061.73C788.66,1059.81 788.25,1057.68 788.25,1055.42C788.25,1053.16 788.66,1051.04 789.47,1049.11C790.27,1047.19 791.42,1045.48 792.89,1044.03C794.35,1042.59 796.09,1041.46 798.07,1040.66C801.84,1039.15 806.53,1039.08 810.45,1040.48C812.17,1041.1 813.78,1042.08 815.23,1043.41L816.1,1042.51C814.7,1041.12 813.03,1040.07 811.13,1039.36C809.05,1038.58 806.78,1038.19 804.39,1038.19L804.4,1038.21Z" style="fill:rgb(6,188,153);fill-rule:nonzero;"/>
                    </g>
                    <g>
                        <rect x="842.91" y="1037.93" width="2.55" height="35.01" style="fill:rgb(6,188,153);fill-rule:nonzero;"/>
                        <path d="M846,1073.47L842.38,1073.47L842.38,1037.39L846,1037.39L846,1073.47ZM843.45,1072.4L844.93,1072.4L844.93,1038.45L843.45,1038.45L843.45,1072.4Z" style="fill:rgb(6,188,153);fill-rule:nonzero;"/>
                    </g>
                    <g>
                        <path d="M875.17,1072.94L875.17,1037.93L877.32,1037.93L902.28,1069.79L901.13,1069.79L901.13,1037.93L903.68,1037.93L903.68,1072.94L901.58,1072.94L876.57,1041.08L877.72,1041.08L877.72,1072.94L875.17,1072.94Z" style="fill:rgb(6,188,153);fill-rule:nonzero;"/>
                        <path d="M904.22,1073.47L901.33,1073.47L878.26,1044.08L878.26,1073.47L874.64,1073.47L874.64,1037.39L877.58,1037.39L900.6,1066.77L900.6,1037.39L904.22,1037.39L904.22,1073.47ZM901.85,1072.4L903.16,1072.4L903.16,1070.31L900.61,1070.31L900.61,1068.49L877.08,1038.45L875.72,1038.45L875.72,1040.54L878.27,1040.54L878.27,1042.35L901.85,1072.4ZM875.71,1072.4L877.19,1072.4L877.19,1042.72L875.71,1040.83L875.71,1072.4ZM901.67,1068.13L903.15,1070.02L903.15,1038.45L901.67,1038.45L901.67,1068.13Z" style="fill:rgb(6,188,153);fill-rule:nonzero;"/>
                    </g>
                    <g>
                        <path d="M948.35,1073.19C945.72,1073.19 943.28,1072.75 941.05,1071.87C938.82,1070.99 936.87,1069.74 935.22,1068.14C933.57,1066.54 932.29,1064.66 931.39,1062.51C930.49,1060.36 930.04,1058 930.04,1055.43C930.04,1052.86 930.49,1050.5 931.39,1048.35C932.29,1046.2 933.57,1044.32 935.24,1042.73C936.91,1041.13 938.85,1039.89 941.07,1039C943.29,1038.12 945.73,1037.67 948.4,1037.67C951.07,1037.67 953.28,1038.07 955.45,1038.87C957.62,1039.67 959.47,1040.87 961,1042.47L959.4,1044.17C957.87,1042.67 956.19,1041.6 954.37,1040.97C952.55,1040.34 950.58,1040.02 948.44,1040.02C946.17,1040.02 944.07,1040.4 942.14,1041.17C940.21,1041.94 938.52,1043.02 937.09,1044.42C935.66,1045.82 934.55,1047.45 933.76,1049.32C932.98,1051.19 932.58,1053.22 932.58,1055.42C932.58,1057.62 932.97,1059.65 933.76,1061.52C934.54,1063.39 935.65,1065.02 937.09,1066.42C938.52,1067.82 940.21,1068.9 942.14,1069.67C944.07,1070.44 946.17,1070.82 948.44,1070.82C950.51,1070.82 952.47,1070.5 954.32,1069.87C956.17,1069.24 957.86,1068.19 959.4,1066.72L960.85,1068.67C959.28,1070.17 957.41,1071.3 955.22,1072.05C953.03,1072.8 950.74,1073.17 948.34,1073.17L948.35,1073.19ZM958.4,1068.44L958.4,1055.59L960.85,1055.59L960.85,1068.69L958.4,1068.44Z" style="fill:rgb(6,188,153);fill-rule:nonzero;"/>
                        <path d="M948.35,1073.72C945.66,1073.72 943.14,1073.26 940.85,1072.36C938.56,1071.46 936.55,1070.17 934.85,1068.52C933.15,1066.87 931.83,1064.92 930.9,1062.71C929.98,1060.5 929.51,1058.05 929.51,1055.43C929.51,1052.81 929.98,1050.35 930.9,1048.14C931.83,1045.93 933.16,1043.98 934.87,1042.34C936.58,1040.7 938.59,1039.41 940.87,1038.5C943.15,1037.59 945.68,1037.14 948.4,1037.14C951.12,1037.14 953.42,1037.56 955.64,1038.38C957.88,1039.2 959.81,1040.46 961.39,1042.11L961.74,1042.48L959.42,1044.94L959.03,1044.56C957.56,1043.12 955.94,1042.09 954.2,1041.48C952.45,1040.87 950.51,1040.56 948.45,1040.56C946.26,1040.56 944.21,1040.93 942.34,1041.67C940.48,1042.41 938.84,1043.46 937.46,1044.81C936.08,1046.16 935,1047.75 934.25,1049.54C933.5,1051.33 933.12,1053.32 933.12,1055.44C933.12,1057.56 933.5,1059.54 934.25,1061.33C935,1063.12 936.08,1064.71 937.46,1066.06C938.84,1067.41 940.48,1068.46 942.34,1069.2C945.9,1070.61 950.4,1070.67 954.15,1069.39C955.46,1068.94 956.71,1068.26 957.86,1067.36L957.86,1055.05L961.38,1055.05L961.38,1068.51L961.56,1068.75L961.38,1068.92L961.38,1069.28L961.04,1069.25C959.45,1070.71 957.56,1071.83 955.4,1072.57C953.17,1073.33 950.8,1073.72 948.35,1073.72ZM948.4,1038.21C945.82,1038.21 943.42,1038.64 941.27,1039.5C939.13,1040.35 937.22,1041.57 935.62,1043.11C934.01,1044.65 932.76,1046.48 931.89,1048.56C931.02,1050.64 930.58,1052.95 930.58,1055.43C930.58,1057.91 931.02,1060.22 931.89,1062.3C932.76,1064.37 934,1066.21 935.6,1067.75C937.19,1069.3 939.1,1070.51 941.25,1071.36C943.41,1072.21 945.8,1072.65 948.36,1072.65C950.69,1072.65 952.95,1072.28 955.06,1071.55C956.75,1070.97 958.27,1070.14 959.59,1069.08L957.88,1068.91L957.88,1068.67C956.82,1069.4 955.69,1069.98 954.51,1070.38C950.52,1071.74 945.76,1071.67 941.96,1070.17C939.97,1069.38 938.21,1068.25 936.73,1066.8C935.25,1065.36 934.09,1063.65 933.29,1061.72C932.49,1059.79 932.07,1057.67 932.07,1055.41C932.07,1053.15 932.48,1051.03 933.29,1049.1C934.1,1047.18 935.25,1045.47 936.73,1044.02C938.21,1042.58 939.97,1041.45 941.96,1040.65C943.95,1039.86 946.14,1039.46 948.46,1039.46C950.64,1039.46 952.7,1039.79 954.56,1040.44C956.29,1041.05 957.91,1042.04 959.39,1043.39L960.27,1042.45C958.87,1041.09 957.19,1040.05 955.27,1039.34C953.17,1038.56 950.86,1038.17 948.4,1038.17L948.4,1038.21ZM958.94,1067.96L959.71,1068.04L959.33,1067.53C959.2,1067.65 959.07,1067.76 958.94,1067.87L958.94,1067.96ZM959.48,1065.94L960.33,1067.08L960.33,1056.12L958.94,1056.12L958.94,1066.45C958.94,1066.45 959.01,1066.39 959.04,1066.36L959.48,1065.94Z" style="fill:rgb(6,188,153);fill-rule:nonzero;"/>
                    </g>
                    <g>
                        <path d="M1028.17,1072.94L1028.17,1060.24L1028.77,1061.89L1014.06,1037.93L1016.86,1037.93L1030.21,1059.69L1028.81,1059.69L1042.16,1037.93L1044.81,1037.93L1030.1,1061.89L1030.7,1060.24L1030.7,1072.94L1028.15,1072.94L1028.17,1072.94Z" style="fill:rgb(6,188,153);fill-rule:nonzero;"/>
                        <path d="M1031.25,1073.47L1027.64,1073.47L1027.64,1061.06L1013.11,1037.39L1017.16,1037.39L1029.52,1057.52L1041.88,1037.39L1045.78,1037.39L1031.25,1061.06L1031.25,1073.47ZM1028.7,1072.4L1030.18,1072.4L1030.18,1065.21L1029.44,1064L1028.7,1065.21L1028.7,1072.4ZM1029.86,1063.32L1030.19,1064.22L1030.19,1062.79L1029.86,1063.32ZM1028.7,1062.79L1028.7,1064.22L1029.03,1063.32L1028.7,1062.79ZM1028.73,1060.21L1029.44,1062.17L1030.15,1060.21L1028.72,1060.21L1028.73,1060.21ZM1027.64,1057.19L1028.41,1059.32L1028.89,1058.53L1016.56,1038.44L1015.01,1038.44L1027.63,1059L1027.63,1057.18L1027.64,1057.19ZM1030.15,1058.53L1030.54,1059.16L1031.26,1057.18L1031.26,1059L1043.88,1038.44L1042.48,1038.44L1030.15,1058.53Z" style="fill:rgb(6,188,153);fill-rule:nonzero;"/>
                    </g>
                    <g>
                        <path d="M1082.04,1073.19C1079.44,1073.19 1077.03,1072.75 1074.81,1071.87C1072.59,1070.99 1070.66,1069.74 1069.01,1068.12C1067.36,1066.5 1066.08,1064.62 1065.18,1062.47C1064.28,1060.32 1063.83,1057.98 1063.83,1055.44C1063.83,1052.9 1064.28,1050.56 1065.18,1048.41C1066.08,1046.26 1067.36,1044.38 1069.01,1042.76C1070.66,1041.14 1072.59,1039.89 1074.81,1039.01C1077.03,1038.13 1079.44,1037.68 1082.04,1037.68C1084.64,1037.68 1087.05,1038.12 1089.27,1039.01C1091.49,1039.89 1093.42,1041.13 1095.05,1042.74C1096.68,1044.34 1097.96,1046.22 1098.88,1048.36C1099.8,1050.51 1100.26,1052.87 1100.26,1055.44C1100.26,1058.01 1099.8,1060.37 1098.88,1062.52C1097.96,1064.67 1096.69,1066.55 1095.05,1068.15C1093.42,1069.75 1091.49,1070.99 1089.27,1071.88C1087.05,1072.76 1084.64,1073.2 1082.04,1073.2L1082.04,1073.19ZM1082.04,1070.84C1084.27,1070.84 1086.34,1070.46 1088.24,1069.69C1090.14,1068.92 1091.79,1067.84 1093.19,1066.44C1094.59,1065.04 1095.68,1063.41 1096.47,1061.54C1097.25,1059.67 1097.64,1057.64 1097.64,1055.44C1097.64,1053.24 1097.25,1051.16 1096.47,1049.31C1095.68,1047.46 1094.59,1045.83 1093.19,1044.43C1091.79,1043.03 1090.14,1041.95 1088.24,1041.18C1086.34,1040.41 1084.27,1040.03 1082.04,1040.03C1079.81,1040.03 1077.74,1040.41 1075.84,1041.18C1073.94,1041.95 1072.28,1043.03 1070.86,1044.43C1069.44,1045.83 1068.34,1047.46 1067.56,1049.31C1066.77,1051.16 1066.38,1053.2 1066.38,1055.44C1066.38,1057.68 1066.77,1059.67 1067.56,1061.54C1068.34,1063.41 1069.44,1065.04 1070.86,1066.44C1072.28,1067.84 1073.94,1068.92 1075.84,1069.69C1077.74,1070.46 1079.81,1070.84 1082.04,1070.84Z" style="fill:rgb(6,188,153);fill-rule:nonzero;"/>
                        <path d="M1082.04,1073.72C1079.38,1073.72 1076.89,1073.26 1074.62,1072.36C1072.35,1071.46 1070.34,1070.16 1068.64,1068.5C1066.94,1066.83 1065.62,1064.87 1064.7,1062.67C1063.78,1060.46 1063.31,1058.03 1063.31,1055.44C1063.31,1052.85 1063.78,1050.41 1064.7,1048.2C1065.62,1046 1066.95,1044.04 1068.64,1042.38C1070.34,1040.72 1072.35,1039.42 1074.62,1038.51C1076.9,1037.6 1079.39,1037.15 1082.04,1037.15C1084.69,1037.15 1087.19,1037.61 1089.46,1038.51C1091.74,1039.42 1093.74,1040.71 1095.41,1042.35C1097.09,1043.99 1098.41,1045.94 1099.35,1048.15C1100.29,1050.36 1100.77,1052.81 1100.77,1055.44C1100.77,1058.07 1100.29,1060.52 1099.35,1062.73C1098.41,1064.93 1097.09,1066.88 1095.41,1068.53C1093.73,1070.18 1091.73,1071.47 1089.46,1072.37C1087.19,1073.27 1084.69,1073.73 1082.04,1073.73L1082.04,1073.72ZM1082.04,1038.21C1079.53,1038.21 1077.16,1038.64 1075.01,1039.5C1072.87,1040.35 1070.98,1041.58 1069.38,1043.14C1067.79,1044.7 1066.54,1046.54 1065.67,1048.62C1064.8,1050.7 1064.36,1052.99 1064.36,1055.44C1064.36,1057.89 1064.8,1060.18 1065.67,1062.26C1066.54,1064.33 1067.78,1066.17 1069.38,1067.74C1070.98,1069.3 1072.87,1070.53 1075.01,1071.38C1077.15,1072.23 1079.52,1072.67 1082.04,1072.67C1084.56,1072.67 1086.93,1072.24 1089.07,1071.38C1091.21,1070.53 1093.1,1069.31 1094.67,1067.77C1096.25,1066.22 1097.49,1064.39 1098.38,1062.31C1099.26,1060.24 1099.71,1057.93 1099.71,1055.44C1099.71,1052.95 1099.26,1050.64 1098.38,1048.57C1097.5,1046.49 1096.25,1044.66 1094.67,1043.12C1093.1,1041.58 1091.21,1040.36 1089.07,1039.51C1086.92,1038.65 1084.56,1038.22 1082.04,1038.22L1082.04,1038.21ZM1082.04,1071.37C1079.75,1071.37 1077.59,1070.97 1075.64,1070.18C1073.68,1069.39 1071.95,1068.26 1070.49,1066.81C1069.03,1065.37 1067.88,1063.66 1067.07,1061.74C1066.26,1059.82 1065.85,1057.7 1065.85,1055.43C1065.85,1053.16 1066.26,1051 1067.07,1049.09C1067.88,1047.18 1069.03,1045.48 1070.49,1044.04C1071.95,1042.6 1073.68,1041.47 1075.64,1040.67C1077.6,1039.88 1079.75,1039.48 1082.04,1039.48C1084.33,1039.48 1086.48,1039.88 1088.44,1040.67C1090.4,1041.46 1092.12,1042.6 1093.57,1044.04C1095.01,1045.49 1096.15,1047.18 1096.96,1049.09C1097.77,1051 1098.18,1053.13 1098.18,1055.43C1098.18,1057.73 1097.77,1059.81 1096.96,1061.74C1096.15,1063.67 1095.01,1065.37 1093.57,1066.81C1092.12,1068.26 1090.39,1069.39 1088.44,1070.18C1086.48,1070.97 1084.33,1071.37 1082.04,1071.37ZM1082.04,1040.56C1079.89,1040.56 1077.87,1040.93 1076.04,1041.67C1074.21,1042.41 1072.6,1043.47 1071.24,1044.81C1069.88,1046.16 1068.81,1047.74 1068.06,1049.52C1067.31,1051.29 1066.93,1053.28 1066.93,1055.44C1066.93,1057.6 1067.31,1059.54 1068.07,1061.33C1068.82,1063.13 1069.9,1064.72 1071.25,1066.06C1072.61,1067.41 1074.23,1068.46 1076.05,1069.2C1077.88,1069.94 1079.9,1070.31 1082.05,1070.31C1084.2,1070.31 1086.22,1069.94 1088.05,1069.2C1089.87,1068.47 1091.48,1067.41 1092.83,1066.07C1094.17,1064.73 1095.23,1063.14 1095.99,1061.34C1096.74,1059.55 1097.12,1057.56 1097.12,1055.45C1097.12,1053.34 1096.74,1051.3 1095.99,1049.53C1095.24,1047.75 1094.17,1046.17 1092.83,1044.82C1091.49,1043.48 1089.88,1042.43 1088.05,1041.69C1086.22,1040.95 1084.2,1040.58 1082.05,1040.58L1082.04,1040.56Z" style="fill:rgb(6,188,153);fill-rule:nonzero;"/>
                    </g>
                    <g>
                        <path d="M1140.31,1073.19C1135.97,1073.19 1132.56,1071.92 1130.06,1069.39C1127.56,1066.86 1126.31,1063.09 1126.31,1058.08L1126.31,1037.92L1128.86,1037.92L1128.86,1057.98C1128.86,1062.35 1129.86,1065.58 1131.86,1067.68C1133.86,1069.78 1136.7,1070.83 1140.36,1070.83C1144.02,1070.83 1146.81,1069.78 1148.81,1067.68C1150.81,1065.58 1151.81,1062.35 1151.81,1057.98L1151.81,1037.92L1154.36,1037.92L1154.36,1058.08C1154.36,1063.08 1153.11,1066.85 1150.61,1069.39C1148.11,1071.92 1144.67,1073.19 1140.31,1073.19Z" style="fill:rgb(6,188,153);fill-rule:nonzero;"/>
                        <path d="M1140.31,1073.72C1135.84,1073.72 1132.27,1072.39 1129.68,1069.76C1127.09,1067.13 1125.78,1063.2 1125.78,1058.08L1125.78,1037.39L1129.39,1037.39L1129.39,1057.98C1129.39,1062.18 1130.35,1065.33 1132.24,1067.31C1134.13,1069.29 1136.86,1070.3 1140.36,1070.3C1143.86,1070.3 1146.54,1069.29 1148.43,1067.31C1150.32,1065.32 1151.28,1062.18 1151.28,1057.98L1151.28,1037.39L1154.9,1037.39L1154.9,1058.08C1154.9,1063.2 1153.59,1067.13 1151,1069.76C1148.41,1072.39 1144.81,1073.72 1140.32,1073.72L1140.31,1073.72ZM1126.84,1038.46L1126.84,1058.08C1126.84,1062.91 1128.05,1066.59 1130.44,1069.01C1132.82,1071.43 1136.14,1072.65 1140.31,1072.65C1144.48,1072.65 1147.85,1071.42 1150.23,1069.01C1152.62,1066.59 1153.83,1062.91 1153.83,1058.08L1153.83,1038.46L1152.34,1038.46L1152.34,1057.98C1152.34,1062.47 1151.28,1065.86 1149.19,1068.05C1147.1,1070.25 1144.12,1071.37 1140.35,1071.37C1136.58,1071.37 1133.56,1070.25 1131.46,1068.05C1129.37,1065.86 1128.31,1062.47 1128.31,1057.98L1128.31,1038.46L1126.83,1038.46L1126.84,1038.46Z" style="fill:rgb(6,188,153);fill-rule:nonzero;"/>
                    </g>
                    <g>
                        <path d="M1183.77,1072.94L1183.77,1037.93L1196.32,1037.93C1199.25,1037.93 1201.77,1038.4 1203.87,1039.33C1205.97,1040.26 1207.59,1041.6 1208.72,1043.36C1209.85,1045.11 1210.42,1047.24 1210.42,1049.74C1210.42,1052.24 1209.85,1054.27 1208.72,1056.02C1207.58,1057.77 1205.97,1059.12 1203.87,1060.07C1201.77,1061.02 1199.25,1061.49 1196.32,1061.49L1185.17,1061.49L1186.32,1060.29L1186.32,1072.94L1183.77,1072.94ZM1186.32,1060.44L1185.17,1059.24L1196.32,1059.24C1200.09,1059.24 1202.95,1058.41 1204.9,1056.74C1206.85,1055.07 1207.82,1052.74 1207.82,1049.74C1207.82,1046.74 1206.85,1044.36 1204.9,1042.71C1202.95,1041.06 1200.09,1040.23 1196.32,1040.23L1185.17,1040.23L1186.32,1038.98L1186.32,1060.44ZM1208.08,1072.94L1198.98,1060.24L1201.88,1060.24L1210.98,1072.94L1208.08,1072.94Z" style="fill:rgb(6,188,153);fill-rule:nonzero;"/>
                        <path d="M1212.01,1073.47L1207.8,1073.47L1199.45,1061.82C1198.46,1061.95 1197.41,1062.02 1196.32,1062.02L1186.85,1062.02L1186.85,1073.48L1183.23,1073.48L1183.23,1037.4L1196.32,1037.4C1199.31,1037.4 1201.93,1037.89 1204.09,1038.85C1206.28,1039.82 1207.99,1041.24 1209.17,1043.07C1210.35,1044.9 1210.96,1047.14 1210.96,1049.74C1210.96,1052.34 1210.36,1054.48 1209.17,1056.31C1207.98,1058.14 1206.27,1059.57 1204.09,1060.56C1203.75,1060.71 1203.41,1060.85 1203.05,1060.98L1212.01,1073.49L1212.01,1073.47ZM1208.35,1072.4L1209.94,1072.4L1201.99,1061.3C1201.55,1061.42 1201.1,1061.53 1200.63,1061.62L1208.35,1072.4ZM1184.3,1072.4L1185.79,1072.4L1185.79,1062.01L1184.3,1062.01L1184.3,1072.4ZM1184.3,1059.09L1184.3,1061.61L1185.51,1060.35L1184.3,1059.09ZM1186.85,1060.94L1196.32,1060.94C1197.16,1060.94 1197.97,1060.9 1198.74,1060.82L1197.94,1059.7C1197.42,1059.74 1196.88,1059.76 1196.32,1059.76L1186.85,1059.76L1186.85,1060.94ZM1198.12,1059.69L1202.15,1059.69L1202.41,1060.05C1202.84,1059.9 1203.26,1059.74 1203.66,1059.56C1205.65,1058.66 1207.21,1057.36 1208.29,1055.71C1209.36,1054.06 1209.9,1052.04 1209.9,1049.72C1209.9,1047.4 1209.36,1045.29 1208.29,1043.63C1207.22,1041.97 1205.66,1040.69 1203.67,1039.8C1201.65,1038.9 1199.18,1038.44 1196.33,1038.44L1186.86,1038.44L1186.86,1039.68L1196.33,1039.68C1200.21,1039.68 1203.21,1040.56 1205.25,1042.28C1207.32,1044.03 1208.36,1046.53 1208.36,1049.71C1208.36,1052.89 1207.31,1055.35 1205.25,1057.12C1203.54,1058.58 1201.14,1059.44 1198.12,1059.68L1198.12,1059.69ZM1186.85,1058.69L1196.32,1058.69C1199.94,1058.69 1202.71,1057.89 1204.55,1056.32C1206.39,1054.75 1207.29,1052.59 1207.29,1049.72C1207.29,1046.85 1206.4,1044.66 1204.56,1043.1C1202.72,1041.54 1199.95,1040.75 1196.33,1040.75L1186.86,1040.75L1186.86,1058.69L1186.85,1058.69ZM1184.3,1058.69L1185.79,1058.69L1185.79,1040.75L1184.3,1040.75L1184.3,1058.69ZM1184.3,1038.45L1184.3,1040.38L1186.07,1038.45L1184.3,1038.45Z" style="fill:rgb(6,188,153);fill-rule:nonzero;"/>
                    </g>
                    <g>
                        <path d="M1270.2,1070.64L1291.81,1070.64L1291.81,1072.94L1267.65,1072.94L1267.65,1037.93L1291.06,1037.93L1291.06,1040.23L1270.2,1040.23L1270.2,1070.64ZM1269.9,1054.03L1288.86,1054.03L1288.86,1056.28L1269.9,1056.28L1269.9,1054.03Z" style="fill:rgb(6,188,153);fill-rule:nonzero;"/>
                        <path d="M1292.34,1073.47L1267.12,1073.47L1267.12,1037.39L1291.59,1037.39L1291.59,1040.76L1270.73,1040.76L1270.73,1053.5L1289.39,1053.5L1289.39,1056.82L1270.73,1056.82L1270.73,1070.11L1292.34,1070.11L1292.34,1073.48L1292.34,1073.47ZM1268.18,1072.4L1291.27,1072.4L1291.27,1071.16L1269.66,1071.16L1269.66,1056.81L1269.36,1056.81L1269.36,1053.49L1269.66,1053.49L1269.66,1039.69L1290.52,1039.69L1290.52,1038.45L1268.18,1038.45L1268.18,1072.4ZM1270.73,1055.75L1288.32,1055.75L1288.32,1054.56L1270.73,1054.56L1270.73,1055.75Z" style="fill:rgb(6,188,153);fill-rule:nonzero;"/>
                    </g>
                    <g>
                        <path d="M1313.06,1072.94L1327.26,1053.88L1327.26,1055.88L1314.01,1037.92L1317.01,1037.92L1328.71,1053.73L1327.61,1053.73L1339.31,1037.92L1342.16,1037.92L1329.01,1055.68L1329.01,1053.98L1343.11,1072.94L1340.11,1072.94L1327.51,1056.04L1328.56,1056.04L1316.06,1072.94L1313.06,1072.94Z" style="fill:rgb(6,188,153);fill-rule:nonzero;"/>
                        <path d="M1344.18,1073.47L1339.85,1073.47L1328.04,1057.63L1316.33,1073.47L1312,1073.47L1325.86,1054.87L1312.96,1037.39L1317.29,1037.39L1317.45,1037.61L1328.18,1052.1L1339.06,1037.4L1343.24,1037.4L1330.32,1054.84L1344.19,1073.48L1344.18,1073.47ZM1340.38,1072.4L1342.06,1072.4L1329.65,1055.72L1328.8,1056.86L1340.38,1072.4ZM1314.12,1072.4L1315.8,1072.4L1327.31,1056.84L1326.52,1055.77L1314.12,1072.4ZM1327.8,1055.5L1328.49,1055.5L1328.49,1054.26L1327.8,1054.26L1327.8,1055.5ZM1315.07,1038.46L1326.53,1053.98L1327.39,1052.83L1316.75,1038.46L1315.07,1038.46ZM1328.89,1052.92L1329.65,1053.94L1341.12,1038.46L1339.59,1038.46L1328.89,1052.92Z" style="fill:rgb(6,188,153);fill-rule:nonzero;"/>
                    </g>
                    <g>
                        <path d="M1381.33,1073.19C1378.73,1073.19 1376.32,1072.75 1374.1,1071.87C1371.88,1070.99 1369.95,1069.74 1368.32,1068.14C1366.69,1066.54 1365.42,1064.66 1364.52,1062.51C1363.62,1060.36 1363.17,1058 1363.17,1055.43C1363.17,1052.86 1363.62,1050.5 1364.52,1048.35C1365.42,1046.2 1366.7,1044.32 1368.35,1042.73C1370,1041.13 1371.93,1039.89 1374.13,1039C1376.33,1038.12 1378.73,1037.67 1381.33,1037.67C1383.93,1037.67 1386.11,1038.07 1388.26,1038.87C1390.41,1039.67 1392.25,1040.89 1393.79,1042.52L1392.19,1044.17C1390.69,1042.7 1389.03,1041.64 1387.21,1040.99C1385.39,1040.34 1383.47,1040.02 1381.43,1040.02C1379.2,1040.02 1377.12,1040.4 1375.2,1041.17C1373.28,1041.94 1371.62,1043.02 1370.2,1044.42C1368.78,1045.82 1367.68,1047.45 1366.9,1049.32C1366.11,1051.19 1365.72,1053.22 1365.72,1055.42C1365.72,1057.62 1366.11,1059.65 1366.9,1061.52C1367.68,1063.39 1368.78,1065.02 1370.2,1066.42C1371.62,1067.82 1373.28,1068.9 1375.2,1069.67C1377.12,1070.44 1379.19,1070.82 1381.43,1070.82C1383.47,1070.82 1385.39,1070.5 1387.21,1069.85C1389.03,1069.2 1390.69,1068.13 1392.19,1066.62L1393.79,1068.27C1392.25,1069.9 1390.41,1071.13 1388.26,1071.95C1386.11,1072.77 1383.8,1073.17 1381.33,1073.17L1381.33,1073.19Z" style="fill:rgb(6,188,153);fill-rule:nonzero;"/>
                        <path d="M1381.33,1073.72C1378.67,1073.72 1376.18,1073.26 1373.91,1072.36C1371.64,1071.45 1369.63,1070.16 1367.96,1068.52C1366.28,1066.87 1364.96,1064.92 1364.04,1062.72C1363.12,1060.51 1362.65,1058.06 1362.65,1055.44C1362.65,1052.82 1363.12,1050.36 1364.04,1048.15C1364.96,1045.94 1366.29,1043.99 1367.99,1042.35C1369.68,1040.71 1371.69,1039.42 1373.94,1038.51C1376.2,1037.6 1378.69,1037.14 1381.34,1037.14C1383.99,1037.14 1386.26,1037.56 1388.45,1038.38C1390.67,1039.2 1392.59,1040.48 1394.18,1042.17L1394.53,1042.54L1392.2,1044.94L1391.82,1044.57C1390.38,1043.16 1388.77,1042.14 1387.04,1041.52C1383.37,1040.21 1378.94,1040.28 1375.41,1041.69C1373.57,1042.43 1371.94,1043.48 1370.59,1044.82C1369.23,1046.17 1368.16,1047.76 1367.41,1049.55C1366.66,1051.34 1366.27,1053.33 1366.27,1055.45C1366.27,1057.57 1366.65,1059.55 1367.41,1061.34C1368.16,1063.14 1369.24,1064.73 1370.59,1066.07C1371.95,1067.41 1373.57,1068.47 1375.41,1069.2C1378.94,1070.61 1383.36,1070.68 1387.04,1069.37C1388.78,1068.75 1390.38,1067.71 1391.82,1066.27L1392.2,1065.89L1394.53,1068.3L1394.18,1068.67C1392.59,1070.36 1390.67,1071.64 1388.45,1072.48C1386.25,1073.32 1383.86,1073.74 1381.33,1073.74L1381.33,1073.72ZM1381.33,1038.21C1378.82,1038.21 1376.46,1038.64 1374.33,1039.5C1372.2,1040.35 1370.32,1041.57 1368.72,1043.11C1367.13,1044.65 1365.88,1046.49 1365.01,1048.56C1364.14,1050.64 1363.7,1052.95 1363.7,1055.43C1363.7,1057.91 1364.14,1060.22 1365.01,1062.3C1365.88,1064.37 1367.12,1066.21 1368.69,1067.75C1370.27,1069.29 1372.15,1070.51 1374.29,1071.36C1376.43,1072.21 1378.8,1072.65 1381.32,1072.65C1383.84,1072.65 1385.98,1072.25 1388.06,1071.46C1389.96,1070.74 1391.63,1069.67 1393.03,1068.28L1392.16,1067.38C1390.71,1068.73 1389.11,1069.74 1387.38,1070.35C1383.46,1071.75 1378.77,1071.67 1375,1070.17C1373.03,1069.38 1371.28,1068.25 1369.82,1066.8C1368.36,1065.36 1367.21,1063.65 1366.4,1061.73C1365.59,1059.81 1365.18,1057.69 1365.18,1055.42C1365.18,1053.15 1365.59,1051.03 1366.4,1049.11C1367.21,1047.19 1368.36,1045.48 1369.82,1044.03C1371.28,1042.59 1373.02,1041.46 1375,1040.66C1376.97,1039.87 1379.14,1039.47 1381.43,1039.47C1383.52,1039.47 1385.52,1039.81 1387.39,1040.48C1389.12,1041.1 1390.72,1042.08 1392.17,1043.41L1393.04,1042.51C1391.64,1041.12 1389.97,1040.06 1388.07,1039.36C1385.99,1038.58 1383.72,1038.19 1381.33,1038.19L1381.33,1038.21Z" style="fill:rgb(6,188,153);fill-rule:nonzero;"/>
                    </g>
                    <g>
                        <path d="M1422.39,1070.64L1444,1070.64L1444,1072.94L1419.84,1072.94L1419.84,1037.93L1443.25,1037.93L1443.25,1040.23L1422.39,1040.23L1422.39,1070.64ZM1422.09,1054.03L1441.05,1054.03L1441.05,1056.28L1422.09,1056.28L1422.09,1054.03Z" style="fill:rgb(6,188,153);fill-rule:nonzero;"/>
                        <path d="M1444.53,1073.47L1419.31,1073.47L1419.31,1037.39L1443.78,1037.39L1443.78,1040.76L1422.92,1040.76L1422.92,1053.5L1441.58,1053.5L1441.58,1056.82L1422.92,1056.82L1422.92,1070.11L1444.53,1070.11L1444.53,1073.48L1444.53,1073.47ZM1420.37,1072.4L1443.46,1072.4L1443.46,1071.16L1421.85,1071.16L1421.85,1056.81L1421.55,1056.81L1421.55,1053.49L1421.85,1053.49L1421.85,1039.69L1442.71,1039.69L1442.71,1038.45L1420.37,1038.45L1420.37,1072.4ZM1422.92,1055.75L1440.51,1055.75L1440.51,1054.56L1422.92,1054.56L1422.92,1055.75Z" style="fill:rgb(6,188,153);fill-rule:nonzero;"/>
                    </g>
                    <g>
                        <path d="M1470.81,1072.94L1470.81,1037.93L1473.36,1037.93L1473.36,1070.64L1493.52,1070.64L1493.52,1072.94L1470.81,1072.94Z" style="fill:rgb(6,188,153);fill-rule:nonzero;"/>
                        <path d="M1494.06,1073.47L1470.28,1073.47L1470.28,1037.39L1473.9,1037.39L1473.9,1070.1L1494.06,1070.1L1494.06,1073.47ZM1471.33,1072.4L1492.98,1072.4L1492.98,1071.16L1472.82,1071.16L1472.82,1038.45L1471.33,1038.45L1471.33,1072.4Z" style="fill:rgb(6,188,153);fill-rule:nonzero;"/>
                    </g>
                    <g>
                        <path d="M1517.58,1072.94L1517.58,1037.93L1520.13,1037.93L1520.13,1070.64L1540.29,1070.64L1540.29,1072.94L1517.58,1072.94Z" style="fill:rgb(6,188,153);fill-rule:nonzero;"/>
                        <path d="M1540.82,1073.47L1517.05,1073.47L1517.05,1037.39L1520.66,1037.39L1520.66,1070.1L1540.82,1070.1L1540.82,1073.47ZM1518.11,1072.4L1539.75,1072.4L1539.75,1071.16L1519.59,1071.16L1519.59,1038.45L1518.11,1038.45L1518.11,1072.4Z" style="fill:rgb(6,188,153);fill-rule:nonzero;"/>
                    </g>
                    <g>
                        <path d="M1566.89,1070.64L1588.5,1070.64L1588.5,1072.94L1564.34,1072.94L1564.34,1037.93L1587.75,1037.93L1587.75,1040.23L1566.89,1040.23L1566.89,1070.64ZM1566.59,1054.03L1585.55,1054.03L1585.55,1056.28L1566.59,1056.28L1566.59,1054.03Z" style="fill:rgb(6,188,153);fill-rule:nonzero;"/>
                        <path d="M1589.03,1073.47L1563.81,1073.47L1563.81,1037.39L1588.28,1037.39L1588.28,1040.76L1567.42,1040.76L1567.42,1053.5L1586.08,1053.5L1586.08,1056.82L1567.42,1056.82L1567.42,1070.11L1589.03,1070.11L1589.03,1073.48L1589.03,1073.47ZM1564.87,1072.4L1587.96,1072.4L1587.96,1071.16L1566.35,1071.16L1566.35,1056.81L1566.05,1056.81L1566.05,1053.49L1566.35,1053.49L1566.35,1039.69L1587.21,1039.69L1587.21,1038.45L1564.87,1038.45L1564.87,1072.4ZM1567.42,1055.75L1585.01,1055.75L1585.01,1054.56L1567.42,1054.56L1567.42,1055.75Z" style="fill:rgb(6,188,153);fill-rule:nonzero;"/>
                    </g>
                    <g>
                        <path d="M1615.3,1072.94L1615.3,1037.93L1617.45,1037.93L1642.41,1069.79L1641.26,1069.79L1641.26,1037.93L1643.81,1037.93L1643.81,1072.94L1641.71,1072.94L1616.7,1041.08L1617.85,1041.08L1617.85,1072.94L1615.3,1072.94Z" style="fill:rgb(6,188,153);fill-rule:nonzero;"/>
                        <path d="M1644.35,1073.47L1641.46,1073.47L1618.4,1044.08L1618.4,1073.47L1614.78,1073.47L1614.78,1037.39L1617.72,1037.39L1640.73,1066.77L1640.73,1037.39L1644.35,1037.39L1644.35,1073.47ZM1641.97,1072.4L1643.28,1072.4L1643.28,1070.31L1640.73,1070.31L1640.73,1068.49L1617.2,1038.45L1615.84,1038.45L1615.84,1040.54L1618.39,1040.54L1618.39,1042.35L1641.97,1072.4ZM1615.84,1072.4L1617.33,1072.4L1617.33,1042.72L1615.84,1040.83L1615.84,1072.4ZM1641.8,1068.13L1643.29,1070.03L1643.29,1038.46L1641.8,1038.46L1641.8,1068.14L1641.8,1068.13Z" style="fill:rgb(6,188,153);fill-rule:nonzero;"/>
                    </g>
                    <g>
                        <path d="M1688.33,1073.19C1685.73,1073.19 1683.32,1072.75 1681.1,1071.87C1678.88,1070.99 1676.95,1069.74 1675.32,1068.14C1673.69,1066.54 1672.42,1064.66 1671.52,1062.51C1670.62,1060.36 1670.17,1058 1670.17,1055.43C1670.17,1052.86 1670.62,1050.5 1671.52,1048.35C1672.42,1046.2 1673.7,1044.32 1675.35,1042.73C1677,1041.13 1678.93,1039.89 1681.13,1039C1683.33,1038.12 1685.73,1037.67 1688.33,1037.67C1690.93,1037.67 1693.11,1038.07 1695.26,1038.87C1697.41,1039.67 1699.25,1040.89 1700.79,1042.52L1699.19,1044.17C1697.69,1042.7 1696.03,1041.64 1694.21,1040.99C1692.39,1040.34 1690.47,1040.02 1688.43,1040.02C1686.2,1040.02 1684.12,1040.4 1682.2,1041.17C1680.28,1041.94 1678.62,1043.02 1677.2,1044.42C1675.78,1045.82 1674.68,1047.45 1673.9,1049.32C1673.11,1051.19 1672.72,1053.22 1672.72,1055.42C1672.72,1057.62 1673.11,1059.65 1673.9,1061.52C1674.68,1063.39 1675.78,1065.02 1677.2,1066.42C1678.62,1067.82 1680.28,1068.9 1682.2,1069.67C1684.12,1070.44 1686.19,1070.82 1688.43,1070.82C1690.47,1070.82 1692.39,1070.5 1694.21,1069.85C1696.03,1069.2 1697.69,1068.13 1699.19,1066.62L1700.79,1068.27C1699.25,1069.9 1697.41,1071.13 1695.26,1071.95C1693.11,1072.77 1690.8,1073.17 1688.33,1073.17L1688.33,1073.19Z" style="fill:rgb(6,188,153);fill-rule:nonzero;"/>
                        <path d="M1688.33,1073.72C1685.67,1073.72 1683.18,1073.26 1680.91,1072.36C1678.64,1071.45 1676.63,1070.16 1674.96,1068.52C1673.28,1066.87 1671.96,1064.92 1671.04,1062.72C1670.12,1060.51 1669.65,1058.06 1669.65,1055.44C1669.65,1052.82 1670.12,1050.36 1671.04,1048.15C1671.96,1045.94 1673.29,1043.99 1674.99,1042.35C1676.68,1040.71 1678.69,1039.42 1680.94,1038.51C1683.2,1037.6 1685.69,1037.14 1688.34,1037.14C1690.99,1037.14 1693.26,1037.56 1695.45,1038.38C1697.67,1039.2 1699.6,1040.48 1701.18,1042.17L1701.53,1042.54L1699.2,1044.94L1698.82,1044.57C1697.38,1043.16 1695.77,1042.14 1694.04,1041.51C1690.36,1040.2 1685.94,1040.27 1682.41,1041.68C1680.57,1042.42 1678.94,1043.47 1677.59,1044.81C1676.23,1046.16 1675.16,1047.75 1674.41,1049.54C1673.66,1051.33 1673.27,1053.32 1673.27,1055.44C1673.27,1057.56 1673.65,1059.54 1674.41,1061.33C1675.16,1063.13 1676.24,1064.72 1677.59,1066.06C1678.95,1067.4 1680.57,1068.46 1682.41,1069.19C1685.94,1070.6 1690.36,1070.67 1694.04,1069.36C1695.78,1068.74 1697.38,1067.7 1698.82,1066.26L1699.2,1065.88L1701.53,1068.29L1701.18,1068.66C1699.59,1070.35 1697.67,1071.63 1695.45,1072.47C1693.25,1073.31 1690.86,1073.73 1688.34,1073.73L1688.33,1073.72ZM1688.33,1038.21C1685.82,1038.21 1683.46,1038.64 1681.33,1039.5C1679.2,1040.35 1677.32,1041.57 1675.72,1043.11C1674.13,1044.65 1672.88,1046.49 1672.01,1048.56C1671.14,1050.64 1670.7,1052.95 1670.7,1055.43C1670.7,1057.91 1671.14,1060.22 1672.01,1062.3C1672.88,1064.37 1674.12,1066.21 1675.69,1067.75C1677.27,1069.29 1679.15,1070.51 1681.29,1071.36C1683.43,1072.21 1685.8,1072.65 1688.32,1072.65C1690.84,1072.65 1692.98,1072.25 1695.06,1071.46C1696.96,1070.74 1698.63,1069.67 1700.03,1068.28L1699.16,1067.38C1697.71,1068.74 1696.11,1069.74 1694.37,1070.35C1690.45,1071.75 1685.76,1071.67 1681.99,1070.17C1680.02,1069.38 1678.27,1068.25 1676.81,1066.8C1675.35,1065.36 1674.2,1063.65 1673.39,1061.73C1672.58,1059.81 1672.17,1057.69 1672.17,1055.42C1672.17,1053.15 1672.58,1051.03 1673.39,1049.11C1674.2,1047.19 1675.35,1045.48 1676.81,1044.03C1678.27,1042.59 1680.01,1041.46 1681.99,1040.66C1683.96,1039.87 1686.13,1039.47 1688.42,1039.47C1690.5,1039.47 1692.51,1039.81 1694.38,1040.48C1696.11,1041.1 1697.71,1042.08 1699.16,1043.41L1700.03,1042.51C1698.63,1041.12 1696.96,1040.06 1695.06,1039.36C1692.98,1038.58 1690.71,1038.19 1688.32,1038.19L1688.33,1038.21Z" style="fill:rgb(6,188,153);fill-rule:nonzero;"/>
                    </g>
                    <g>
                        <path d="M1729.39,1070.64L1751,1070.64L1751,1072.94L1726.84,1072.94L1726.84,1037.93L1750.25,1037.93L1750.25,1040.23L1729.39,1040.23L1729.39,1070.64ZM1729.09,1054.03L1748.05,1054.03L1748.05,1056.28L1729.09,1056.28L1729.09,1054.03Z" style="fill:rgb(6,188,153);fill-rule:nonzero;"/>
                        <path d="M1751.53,1073.47L1726.3,1073.47L1726.3,1037.39L1750.77,1037.39L1750.77,1040.76L1729.91,1040.76L1729.91,1053.5L1748.57,1053.5L1748.57,1056.82L1729.91,1056.82L1729.91,1070.11L1751.52,1070.11L1751.52,1073.48L1751.53,1073.47ZM1727.37,1072.4L1750.46,1072.4L1750.46,1071.16L1728.85,1071.16L1728.85,1056.81L1728.55,1056.81L1728.55,1053.49L1728.85,1053.49L1728.85,1039.69L1749.71,1039.69L1749.71,1038.45L1727.37,1038.45L1727.37,1072.4ZM1729.92,1055.75L1747.51,1055.75L1747.51,1054.56L1729.92,1054.56L1729.92,1055.75Z" style="fill:rgb(6,188,153);fill-rule:nonzero;"/>
                    </g>
                </g>
                <g>
                    <g>
                        <path d="M556.38,947.02C556.38,967.93 531.14,967.84 527.68,967.84L519.31,967.84L519.31,1001.74L511,1001.74L511,928.8C511,928.8 527.44,928.77 533.05,928.77C538.99,928.77 556.38,930.99 556.38,947.02ZM547.65,948.31C547.65,935.6 540.58,930.69 528.65,930.69L519.31,930.69L519.31,965.93L525.68,965.93C539.29,965.93 547.65,961.3 547.65,948.31Z" style="fill:rgb(40,168,181);fill-rule:nonzero;"/>
                        <path d="M519.64,1002.07L510.68,1002.07L510.68,928.48L511.01,928.48C511.01,928.48 527.45,928.45 533.06,928.45C534.88,928.45 541.29,928.68 547.1,931.6C553.48,934.81 556.72,940 556.72,947.03C556.72,955.93 552.29,962.17 543.54,965.56C540.45,966.76 535.21,968.18 527.75,968.18L519.65,968.18L519.65,1002.08L519.64,1002.07ZM511.33,1001.42L518.99,1001.42L518.99,967.52L527.7,967.52C535.1,967.52 540.27,966.12 543.3,964.94C551.77,961.66 556.06,955.63 556.06,947.02C556.06,940.26 552.95,935.26 546.8,932.18C541.12,929.32 534.84,929.1 533.06,929.1C527.91,929.1 513.67,929.13 511.34,929.13L511.34,1001.42L511.33,1001.42ZM525.69,966.26L518.99,966.26L518.99,930.37L528.66,930.37C541.66,930.37 547.98,936.24 547.98,948.31C547.98,960.38 540.9,966.26 525.69,966.26ZM519.64,965.61L525.68,965.61C540.44,965.61 547.32,960.11 547.32,948.32C547.32,936.53 541.39,931.03 528.65,931.03L519.64,931.03L519.64,965.61Z" style="fill:rgb(40,168,181);fill-rule:nonzero;"/>
                    </g>
                    <g>
                        <path d="M598.93,972.42L570.55,972.42L557.5,1001.74L554.85,1001.74L587.93,927.39L588.57,927.39L620.43,1001.74L611.49,1001.74L598.93,972.42ZM598.11,970.5L585.01,939.92L571.41,970.5L598.12,970.5L598.11,970.5Z" style="fill:rgb(40,168,181);fill-rule:nonzero;"/>
                        <path d="M620.94,1002.07L611.28,1002.07L598.72,972.75L570.77,972.75L557.72,1002.07L554.36,1002.07L587.73,927.06L588.8,927.06L620.94,1002.07ZM611.71,1001.42L619.94,1001.42L588.36,927.72L588.15,927.72L555.36,1001.42L557.29,1001.42L570.34,972.1L599.15,972.1L611.71,1001.42ZM598.6,970.83L570.9,970.83L585.01,939.11L598.6,970.83ZM571.9,970.18L597.61,970.18L585,940.74L571.9,970.18Z" style="fill:rgb(40,168,181);fill-rule:nonzero;"/>
                    </g>
                    <g>
                        <path d="M667.76,930.72L645.29,930.72L645.29,1001.74L636.98,1001.74L636.98,930.72L614.5,930.72L614.5,928.8L667.76,928.8L667.76,930.72Z" style="fill:rgb(40,168,181);fill-rule:nonzero;"/>
                        <path d="M645.61,1002.07L636.65,1002.07L636.65,931.05L614.17,931.05L614.17,928.48L668.08,928.48L668.08,931.05L645.61,931.05L645.61,1002.07ZM637.3,1001.42L644.96,1001.42L644.96,930.4L667.43,930.4L667.43,929.14L614.82,929.14L614.82,930.4L637.3,930.4L637.3,1001.42Z" style="fill:rgb(40,168,181);fill-rule:nonzero;"/>
                    </g>
                    <g>
                        <path d="M733.68,928.81L733.68,1001.75L725.37,1001.75L725.37,964.59L691.27,964.59L691.27,1001.75L682.96,1001.75L682.96,928.81L691.27,928.81L691.27,962.67L725.37,962.67L725.37,928.81L733.68,928.81Z" style="fill:rgb(40,168,181);fill-rule:nonzero;"/>
                        <path d="M734.01,1002.07L725.05,1002.07L725.05,964.91L691.6,964.91L691.6,1002.07L682.64,1002.07L682.64,928.48L691.6,928.48L691.6,962.34L725.05,962.34L725.05,928.48L734.01,928.48L734.01,1002.07ZM725.7,1001.42L733.36,1001.42L733.36,929.13L725.7,929.13L725.7,962.99L690.94,962.99L690.94,929.13L683.28,929.13L683.28,1001.42L690.94,1001.42L690.94,964.26L725.7,964.26L725.7,1001.42Z" style="fill:rgb(40,168,181);fill-rule:nonzero;"/>
                    </g>
                    <g>
                        <path d="M830.03,965.53C830.03,996.42 804.65,1003.77 790.08,1003.77C775.51,1003.77 750.13,996.41 750.13,965.53C750.13,938.62 769.27,927.39 790.08,927.39C810.89,927.39 830.03,938.61 830.03,965.53ZM821.51,965.53C821.51,935.43 801.35,929.31 790.08,929.31C778.81,929.31 758.66,935.43 758.66,965.53C758.66,995.63 777.01,1001.85 790.08,1001.85C803.15,1001.85 821.51,996.04 821.51,965.53Z" style="fill:rgb(40,168,181);fill-rule:nonzero;"/>
                        <path d="M790.08,1004.09C785.65,1004.09 774.28,1003.35 764.46,996.49C754.74,989.7 749.81,979.28 749.81,965.52C749.81,952.99 754.06,942.82 762.1,936.11C769.19,930.19 778.87,927.06 790.08,927.06C809.55,927.06 830.35,937.16 830.35,965.52C830.35,979.29 825.42,989.71 815.7,996.49C805.87,1003.35 794.51,1004.09 790.08,1004.09ZM790.08,927.71C770.93,927.71 750.46,937.64 750.46,965.52C750.46,979.06 755.3,989.3 764.83,995.96C774.5,1002.71 785.71,1003.44 790.08,1003.44C794.45,1003.44 805.65,1002.71 815.33,995.96C824.87,989.3 829.7,979.06 829.7,965.52C829.7,937.64 809.23,927.71 790.08,927.71ZM790.08,1002.17C778.22,1002.17 758.33,997.41 758.33,965.52C758.33,930.73 784.78,928.97 790.08,928.97C795.38,928.97 821.83,930.73 821.83,965.52C821.83,997.41 801.94,1002.17 790.08,1002.17ZM790.08,929.63C784.89,929.63 758.98,931.36 758.98,965.52C758.98,996.84 778.46,1001.52 790.08,1001.52C801.7,1001.52 821.18,996.84 821.18,965.52C821.18,931.36 795.27,929.63 790.08,929.63Z" style="fill:rgb(40,168,181);fill-rule:nonzero;"/>
                    </g>
                    <g>
                        <path d="M884.02,999.83L884.02,1001.75L846.67,1001.75L846.67,928.81L854.98,928.81L854.98,999.83L884.02,999.83Z" style="fill:rgb(40,168,181);fill-rule:nonzero;"/>
                        <path d="M884.35,1002.07L846.35,1002.07L846.35,928.48L855.31,928.48L855.31,999.5L884.35,999.5L884.35,1002.07ZM847,1001.42L883.69,1001.42L883.69,1000.16L854.65,1000.16L854.65,929.14L846.99,929.14L846.99,1001.43L847,1001.42Z" style="fill:rgb(40,168,181);fill-rule:nonzero;"/>
                    </g>
                    <g>
                        <path d="M969.5,965.53C969.5,996.42 944.12,1003.77 929.55,1003.77C914.98,1003.77 889.6,996.41 889.6,965.53C889.6,938.62 908.74,927.39 929.55,927.39C950.36,927.39 969.5,938.61 969.5,965.53ZM960.98,965.53C960.98,935.43 940.82,929.31 929.55,929.31C918.28,929.31 898.13,935.43 898.13,965.53C898.13,995.63 916.48,1001.85 929.55,1001.85C942.62,1001.85 960.98,996.04 960.98,965.53Z" style="fill:rgb(40,168,181);fill-rule:nonzero;"/>
                        <path d="M929.55,1004.09C925.12,1004.09 913.75,1003.35 903.93,996.49C894.21,989.7 889.28,979.28 889.28,965.52C889.28,952.99 893.53,942.82 901.57,936.11C908.66,930.19 918.34,927.06 929.55,927.06C949.02,927.06 969.82,937.16 969.82,965.52C969.82,979.29 964.89,989.71 955.17,996.49C945.34,1003.35 933.98,1004.09 929.55,1004.09ZM929.55,927.71C910.4,927.71 889.93,937.64 889.93,965.52C889.93,979.06 894.77,989.3 904.3,995.96C913.97,1002.71 925.18,1003.44 929.55,1003.44C933.92,1003.44 945.12,1002.71 954.8,995.96C964.34,989.3 969.17,979.06 969.17,965.52C969.17,937.64 948.7,927.71 929.55,927.71ZM929.55,1002.17C917.69,1002.17 897.8,997.41 897.8,965.52C897.8,930.73 924.25,928.97 929.55,928.97C934.85,928.97 961.3,930.73 961.3,965.52C961.3,997.41 941.41,1002.17 929.55,1002.17ZM929.55,929.63C924.36,929.63 898.45,931.36 898.45,965.52C898.45,996.84 917.93,1001.52 929.55,1001.52C941.17,1001.52 960.65,996.84 960.65,965.52C960.65,931.36 934.74,929.63 929.55,929.63Z" style="fill:rgb(40,168,181);fill-rule:nonzero;"/>
                    </g>
                    <g>
                        <path d="M1048.44,964.58L1048.44,997.64C1048.44,997.64 1038.66,1003.76 1024.1,1003.76C1009.54,1003.76 985.22,996.4 985.22,965.52C985.22,938.61 1004.36,927.38 1025.17,927.38C1038.39,927.38 1046.47,930.19 1046.47,930.19L1046.47,932.53C1046.47,932.53 1038.88,929.29 1025.17,929.29C1012.95,929.29 993.74,935.41 993.74,965.51C993.74,992.75 1007.07,1001.84 1025.17,1001.84C1031.02,1001.84 1036.18,1000.58 1040.14,999.16L1040.14,966.49L1029.76,966.49L1029.76,964.57L1048.45,964.57L1048.44,964.58Z" style="fill:rgb(40,168,181);fill-rule:nonzero;"/>
                        <path d="M1024.09,1004.09C1006,1004.09 984.88,993.99 984.88,965.52C984.88,952.99 989.13,942.82 997.17,936.11C1004.26,930.19 1013.94,927.06 1025.15,927.06C1038.28,927.06 1046.48,929.86 1046.56,929.89L1046.78,929.97L1046.78,933.04L1046.32,932.85C1046.24,932.82 1038.62,929.64 1025.14,929.64C996.28,929.64 994.04,957.11 994.04,965.53C994.04,989.42 1004.5,1001.53 1025.14,1001.53C1030.01,1001.53 1034.93,1000.66 1039.78,998.94L1039.78,966.83L1029.4,966.83L1029.4,964.26L1048.74,964.26L1048.74,997.83L1048.59,997.93C1048.49,997.99 1038.56,1004.1 1024.07,1004.1L1024.09,1004.09ZM1025.16,927.71C1006.01,927.71 985.54,937.64 985.54,965.52C985.54,993.4 1006.31,1003.44 1024.09,1003.44C1037.41,1003.44 1046.81,998.22 1048.11,997.46L1048.11,964.91L1030.08,964.91L1030.08,966.17L1040.46,966.17L1040.46,999.4L1040.24,999.48C1035.25,1001.27 1030.18,1002.18 1025.16,1002.18C1004.09,1002.18 993.41,989.85 993.41,965.53C993.41,952.1 997.19,942.12 1004.66,935.88C1011.84,929.88 1020.59,928.98 1025.16,928.98C1036.92,928.98 1044.3,931.39 1046.14,932.07L1046.14,930.44C1044.76,930 1036.98,927.72 1025.16,927.72L1025.16,927.71Z" style="fill:rgb(40,168,181);fill-rule:nonzero;"/>
                    </g>
                    <g>
                        <path d="M1118.78,928.81L1095.5,967.69L1095.5,1001.75L1087.19,1001.75L1087.19,969.9L1063.64,928.81L1073.22,928.81L1094.41,965.79L1116.55,928.81L1118.78,928.81Z" style="fill:rgb(40,168,181);fill-rule:nonzero;"/>
                        <path d="M1095.83,1002.07L1086.87,1002.07L1086.87,969.98L1063.09,928.48L1073.42,928.48L1073.51,928.64L1094.42,965.14L1116.37,928.48L1119.36,928.48L1095.83,967.77L1095.83,1002.07ZM1087.52,1001.42L1095.18,1001.42L1095.18,967.59L1118.21,929.13L1116.75,929.13L1094.41,966.43L1073.04,929.13L1064.22,929.13L1087.53,969.8L1087.53,1001.41L1087.52,1001.42Z" style="fill:rgb(40,168,181);fill-rule:nonzero;"/>
                    </g>
                    <g>
                        <path d="M1185.74,1002.79C1195.1,1002.79 1203.62,997.16 1203.62,985.86C1203.62,962.99 1166.55,972.74 1166.55,946.63C1166.55,932.16 1179.36,926.6 1188.59,926.6C1197.82,926.6 1204.83,930.93 1204.83,930.93L1204.95,933.31C1204.95,933.31 1198.57,928.53 1188.62,928.53C1178.67,928.53 1172.96,935.32 1172.96,943.54C1172.96,964.72 1210.24,957.06 1210.24,982.99C1210.24,995.86 1198.31,1004.56 1185.73,1004.56C1173.15,1004.56 1166.09,998.91 1166.09,998.9L1166.09,996.2C1170.19,999.36 1175.84,1002.77 1185.73,1002.77L1185.74,1002.79Z" style="fill:rgb(40,168,181);fill-rule:nonzero;"/>
                        <path d="M1185.74,1004.9C1173.12,1004.9 1165.93,999.21 1165.87,999.15L1165.77,999.05L1165.77,995.56L1166.3,995.96C1170.47,999.17 1176.04,1002.46 1185.74,1002.46C1194.48,1002.46 1203.29,997.33 1203.29,985.85C1203.29,975.02 1194.83,971.67 1185.88,968.12C1176.21,964.29 1166.22,960.33 1166.22,946.62C1166.22,931.69 1179.6,926.27 1188.59,926.27C1197.58,926.27 1204.94,930.61 1205.01,930.65L1205.16,930.74L1205.33,933.99L1204.77,933.57C1204.71,933.52 1198.35,928.86 1188.64,928.86C1179.61,928.86 1173.3,934.9 1173.3,943.54C1173.3,953.38 1181.57,956.87 1190.33,960.58C1200.29,964.79 1210.58,969.15 1210.58,982.99C1210.58,996.83 1197.69,1004.89 1185.75,1004.89L1185.74,1004.9ZM1166.43,998.76C1167.42,999.49 1174.33,1004.25 1185.74,1004.25C1197.15,1004.25 1209.92,996.13 1209.92,983.01C1209.92,969.89 1199.83,965.33 1190.07,961.2C1181.11,957.41 1172.65,953.83 1172.65,943.56C1172.65,934.53 1179.23,928.22 1188.64,928.22C1196.93,928.22 1202.83,931.55 1204.61,932.69L1204.53,931.14C1203.48,930.53 1196.91,926.94 1188.6,926.94C1179.87,926.94 1166.88,932.19 1166.88,946.64C1166.88,959.9 1176.66,963.78 1186.13,967.53C1195.3,971.16 1203.95,974.59 1203.95,985.87C1203.95,997.79 1194.81,1003.13 1185.75,1003.13C1176.69,1003.13 1170.64,1000.04 1166.44,996.89L1166.44,998.77L1166.43,998.76Z" style="fill:rgb(40,168,181);fill-rule:nonzero;"/>
                    </g>
                    <g>
                        <path d="M1305.17,965.53C1305.17,996.42 1279.79,1003.77 1265.22,1003.77C1250.65,1003.77 1225.27,996.41 1225.27,965.53C1225.27,938.62 1244.41,927.39 1265.22,927.39C1286.03,927.39 1305.17,938.61 1305.17,965.53ZM1296.65,965.53C1296.65,935.43 1276.49,929.31 1265.23,929.31C1253.97,929.31 1233.8,935.43 1233.8,965.53C1233.8,995.63 1252.15,1001.85 1265.23,1001.85C1278.31,1001.85 1296.65,996.04 1296.65,965.53Z" style="fill:rgb(40,168,181);fill-rule:nonzero;"/>
                        <path d="M1265.22,1004.09C1260.79,1004.09 1249.42,1003.35 1239.6,996.49C1229.88,989.7 1224.95,979.28 1224.95,965.52C1224.95,952.99 1229.2,942.82 1237.24,936.11C1244.33,930.19 1254.01,927.06 1265.22,927.06C1284.69,927.06 1305.49,937.16 1305.49,965.52C1305.49,979.29 1300.56,989.71 1290.84,996.49C1281.01,1003.35 1269.65,1004.09 1265.22,1004.09ZM1265.22,927.71C1246.07,927.71 1225.6,937.64 1225.6,965.52C1225.6,979.06 1230.44,989.3 1239.97,995.96C1249.64,1002.71 1260.85,1003.44 1265.22,1003.44C1269.59,1003.44 1280.79,1002.71 1290.47,995.96C1300.01,989.3 1304.84,979.06 1304.84,965.52C1304.84,937.64 1284.37,927.71 1265.22,927.71ZM1265.22,1002.17C1253.36,1002.17 1233.47,997.41 1233.47,965.52C1233.47,930.73 1259.92,928.97 1265.22,928.97C1270.52,928.97 1296.97,930.73 1296.97,965.52C1296.97,997.41 1277.08,1002.17 1265.22,1002.17ZM1265.22,929.63C1260.03,929.63 1234.12,931.36 1234.12,965.52C1234.12,996.84 1253.6,1001.52 1265.22,1001.52C1276.84,1001.52 1296.32,996.84 1296.32,965.52C1296.32,931.36 1270.42,929.63 1265.22,929.63Z" style="fill:rgb(40,168,181);fill-rule:nonzero;"/>
                    </g>
                    <g>
                        <path d="M1359.16,999.83L1359.16,1001.75L1321.81,1001.75L1321.81,928.81L1330.12,928.81L1330.12,999.83L1359.16,999.83Z" style="fill:rgb(40,168,181);fill-rule:nonzero;"/>
                        <path d="M1359.49,1002.07L1321.49,1002.07L1321.49,928.48L1330.45,928.48L1330.45,999.5L1359.49,999.5L1359.49,1002.07ZM1322.14,1001.42L1358.83,1001.42L1358.83,1000.16L1329.79,1000.16L1329.79,929.14L1322.13,929.14L1322.13,1001.43L1322.14,1001.42Z" style="fill:rgb(40,168,181);fill-rule:nonzero;"/>
                    </g>
                    <g>
                        <path d="M1425.34,928.81L1425.34,974.75C1425.34,993.88 1415.73,1003.77 1397.12,1003.77C1383.47,1003.77 1369.96,998.39 1369.96,974.75L1369.96,928.81L1378.27,928.81L1378.27,974.75C1378.27,983.01 1379.3,1000.79 1398.87,1000.79C1412.11,1000.79 1423.42,995.85 1423.42,973.71L1423.42,928.81L1425.34,928.81Z" style="fill:rgb(40,168,181);fill-rule:nonzero;"/>
                        <path d="M1397.12,1004.09C1378.88,1004.09 1369.64,994.22 1369.64,974.75L1369.64,928.48L1378.6,928.48L1378.6,974.75C1378.6,981.11 1378.6,1000.46 1398.87,1000.46C1420.34,1000.46 1423.09,986.16 1423.09,973.71L1423.09,928.49L1425.66,928.49L1425.66,974.76C1425.66,993.96 1415.79,1004.1 1397.12,1004.1L1397.12,1004.09ZM1370.29,929.13L1370.29,974.75C1370.29,994.06 1379.07,1003.44 1397.12,1003.44C1415.17,1003.44 1425.01,993.79 1425.01,974.75L1425.01,929.13L1423.75,929.13L1423.75,973.68C1423.75,998.26 1409.55,1001.11 1398.87,1001.11C1384.98,1001.11 1377.94,992.24 1377.94,974.75L1377.94,929.13L1370.28,929.13L1370.29,929.13Z" style="fill:rgb(40,168,181);fill-rule:nonzero;"/>
                    </g>
                    <g>
                        <path d="M1493.89,930.72L1471.41,930.72L1471.41,1001.74L1463.1,1001.74L1463.1,930.72L1440.63,930.72L1440.63,928.8L1493.89,928.8L1493.89,930.72Z" style="fill:rgb(40,168,181);fill-rule:nonzero;"/>
                        <path d="M1471.75,1002.07L1462.78,1002.07L1462.78,931.05L1440.31,931.05L1440.31,928.48L1494.22,928.48L1494.22,931.05L1471.75,931.05L1471.75,1002.07ZM1463.42,1001.42L1471.09,1001.42L1471.09,930.4L1493.56,930.4L1493.56,929.14L1440.95,929.14L1440.95,930.4L1463.42,930.4L1463.42,1001.42Z" style="fill:rgb(40,168,181);fill-rule:nonzero;"/>
                    </g>
                    <g>
                        <rect x="1510.24" y="928.81" width="8.31" height="72.94" style="fill:rgb(40,168,181);fill-rule:nonzero;"/>
                        <path d="M1518.88,1002.07L1509.92,1002.07L1509.92,928.48L1518.88,928.48L1518.88,1002.07ZM1510.57,1001.42L1518.23,1001.42L1518.23,929.13L1510.57,929.13L1510.57,1001.42Z" style="fill:rgb(40,168,181);fill-rule:nonzero;"/>
                    </g>
                    <g>
                        <path d="M1616.12,965.53C1616.12,996.42 1590.74,1003.77 1576.17,1003.77C1561.6,1003.77 1536.22,996.41 1536.22,965.53C1536.22,938.62 1555.36,927.39 1576.17,927.39C1596.98,927.39 1616.12,938.61 1616.12,965.53ZM1607.6,965.53C1607.6,935.43 1587.44,929.31 1576.18,929.31C1564.92,929.31 1544.75,935.43 1544.75,965.53C1544.75,995.63 1563.1,1001.85 1576.18,1001.85C1589.26,1001.85 1607.6,996.04 1607.6,965.53Z" style="fill:rgb(40,168,181);fill-rule:nonzero;"/>
                        <path d="M1576.18,1004.09C1571.75,1004.09 1560.38,1003.35 1550.56,996.49C1540.84,989.7 1535.91,979.28 1535.91,965.52C1535.91,952.99 1540.16,942.82 1548.2,936.11C1555.29,930.19 1564.97,927.06 1576.18,927.06C1595.65,927.06 1616.45,937.16 1616.45,965.52C1616.45,979.29 1611.52,989.71 1601.8,996.49C1591.97,1003.35 1580.61,1004.09 1576.18,1004.09ZM1576.18,927.71C1557.03,927.71 1536.56,937.64 1536.56,965.52C1536.56,979.06 1541.4,989.3 1550.93,995.96C1560.6,1002.71 1571.81,1003.44 1576.18,1003.44C1580.55,1003.44 1591.75,1002.71 1601.43,995.96C1610.97,989.3 1615.8,979.06 1615.8,965.52C1615.8,937.64 1595.33,927.71 1576.18,927.71ZM1576.18,1002.17C1564.32,1002.17 1544.43,997.41 1544.43,965.52C1544.43,930.73 1570.88,928.97 1576.18,928.97C1581.48,928.97 1607.93,930.73 1607.93,965.52C1607.93,997.41 1588.04,1002.17 1576.18,1002.17ZM1576.18,929.63C1570.99,929.63 1545.08,931.36 1545.08,965.52C1545.08,996.84 1564.56,1001.52 1576.18,1001.52C1587.8,1001.52 1607.28,996.84 1607.28,965.52C1607.28,931.36 1581.38,929.63 1576.18,929.63Z" style="fill:rgb(40,168,181);fill-rule:nonzero;"/>
                    </g>
                    <g>
                        <path d="M1692.02,1003.77L1691.7,1003.77L1634.69,940.63L1634.69,1001.75L1632.77,1001.75L1632.77,927.4L1633.09,927.4L1690.1,990.54L1690.1,928.81L1692.02,928.81L1692.02,1003.77Z" style="fill:rgb(40,168,181);fill-rule:nonzero;"/>
                        <path d="M1692.34,1004.09L1691.55,1004.09L1691.45,1003.98L1635.01,941.47L1635.01,1002.07L1632.44,1002.07L1632.44,927.06L1633.23,927.06L1633.33,927.17L1689.77,989.68L1689.77,928.47L1692.34,928.47L1692.34,1004.09ZM1634.36,939.77L1691.69,1003.27L1691.69,929.13L1690.43,929.13L1690.43,991.38L1633.1,927.88L1633.1,1001.41L1634.36,1001.41L1634.36,939.77Z" style="fill:rgb(40,168,181);fill-rule:nonzero;"/>
                    </g>
                    <g>
                        <path d="M1727.59,1002.79C1736.95,1002.79 1745.47,997.16 1745.47,985.86C1745.47,962.99 1708.4,972.74 1708.4,946.63C1708.4,932.16 1721.21,926.6 1730.44,926.6C1739.67,926.6 1746.69,930.93 1746.69,930.93L1746.81,933.31C1746.81,933.31 1740.43,928.53 1730.48,928.53C1720.53,928.53 1714.82,935.32 1714.82,943.54C1714.82,964.72 1752.1,957.06 1752.1,982.99C1752.1,995.86 1740.17,1004.56 1727.59,1004.56C1715.01,1004.56 1707.95,998.91 1707.95,998.9L1707.95,996.2C1712.05,999.36 1717.69,1002.77 1727.59,1002.77L1727.59,1002.79Z" style="fill:rgb(40,168,181);fill-rule:nonzero;"/>
                        <path d="M1727.59,1004.9C1714.97,1004.9 1707.78,999.21 1707.72,999.15L1707.62,999.05L1707.62,995.56L1708.15,995.96C1712.32,999.17 1717.89,1002.46 1727.59,1002.46C1736.33,1002.46 1745.14,997.33 1745.14,985.85C1745.14,975.02 1736.68,971.67 1727.73,968.12C1718.07,964.29 1708.07,960.33 1708.07,946.62C1708.07,931.69 1721.45,926.27 1730.44,926.27C1739.43,926.27 1746.79,930.61 1746.86,930.65L1747.01,930.74L1747.17,933.99L1746.61,933.57C1746.55,933.52 1740.19,928.86 1730.48,928.86C1721.45,928.86 1715.14,934.9 1715.14,943.54C1715.14,953.38 1723.41,956.87 1732.16,960.58C1742.12,964.79 1752.41,969.15 1752.41,982.99C1752.41,996.83 1739.52,1004.89 1727.58,1004.89L1727.59,1004.9ZM1708.28,998.76C1709.27,999.49 1716.18,1004.25 1727.59,1004.25C1739,1004.25 1751.77,996.13 1751.77,983.01C1751.77,969.89 1741.68,965.33 1731.92,961.2C1722.96,957.41 1714.5,953.83 1714.5,943.56C1714.5,934.53 1721.08,928.22 1730.49,928.22C1738.78,928.22 1744.68,931.55 1746.46,932.69L1746.38,931.14C1745.33,930.53 1738.76,926.94 1730.45,926.94C1721.72,926.94 1708.74,932.19 1708.74,946.64C1708.74,959.9 1718.52,963.78 1727.99,967.53C1737.15,971.16 1745.81,974.59 1745.81,985.87C1745.81,997.79 1736.67,1003.13 1727.61,1003.13C1718.55,1003.13 1712.5,1000.04 1708.3,996.89L1708.3,998.77L1708.28,998.76Z" style="fill:rgb(40,168,181);fill-rule:nonzero;"/>
                    </g>
                </g>
            </g>
            <rect x="473.13" y="901.38" width="5.4" height="197.24" style="fill:rgb(6,188,153);"/>
        </g>
    </g>
</svg>
